<svg xmlns="http://www.w3.org/2000/svg" version="1.1" xmlns:xlink="http://www.w3.org/1999/xlink" xmlns:svgjs="http://svgjs.dev/svgjs" width="1000" height="340" viewBox="0 0 1000 340"><g transform="matrix(1,0,0,1,-0.6060606060606233,-0.4004224591867853)"><svg viewBox="0 0 396 135" data-background-color="#282634" preserveAspectRatio="xMidYMid meet" height="340" width="1000" xmlns="http://www.w3.org/2000/svg" xmlns:xlink="http://www.w3.org/1999/xlink"><g id="tight-bounds" transform="matrix(1,0,0,1,0.2400000000000091,0.15899127055945428)"><svg viewBox="0 0 395.52 134.68201745888106" height="134.68201745888106" width="395.52"><g><svg viewBox="0 0 590.2756841630435 200.99999999999997" height="134.68201745888106" width="395.52"><g><rect width="8.5855802647482" height="200.99999999999997" x="186.87263659214022" y="0" fill="#915eff" opacity="1" stroke-width="0" stroke="transparent" fill-opacity="1" class="rect-s$-0" data-fill-palette-color="primary" rx="1%" id="s$-0" data-palette-color="#915eff"></rect></g><g transform="matrix(1,0,0,1,217.93355786408264,0.4999999999999858)"><svg viewBox="0 0 372.34212629896086 200" height="200" width="372.34212629896086"><g id="textblocktransform"><svg viewBox="0 0 372.34212629896086 200" height="200" width="372.34212629896086" id="textblock"><g><svg viewBox="0 0 372.34212629896086 200" height="200" width="372.34212629896086"><g transform="matrix(1,0,0,1,0,0)"><svg width="372.34212629896086" viewBox="3.7 -41.5 232.90000000000003 109.25" height="200" data-palette-color="#915eff"><svg></svg><svg></svg><g class="undefined-text-0" data-fill-palette-color="primary" id="text-0"><path d="M39.1-26.95v0c0 1.833-0.457 3.583-1.37 5.25-0.92 1.667-2.157 3.127-3.71 4.38-1.547 1.247-3.36 2.237-5.44 2.97-2.087 0.733-4.297 1.1-6.63 1.1v0c-0.833 0-1.49-0.11-1.97-0.33-0.487-0.213-1.03-0.637-1.63-1.27v0c-1.667 3.633-3.023 6.973-4.07 10.02-1.053 3.053-1.88 6.013-2.48 8.88v0c-1.267-0.3-2.3-0.823-3.1-1.57-0.8-0.753-1.533-1.697-2.2-2.83v0c0.333-0.633 0.733-1.467 1.2-2.5 0.467-1.033 1.033-2.31 1.7-3.83 0.667-1.513 1.443-3.33 2.33-5.45 0.88-2.113 1.92-4.587 3.12-7.42v0c0.533-1.3 1-2.433 1.4-3.4 0.4-0.967 0.75-1.877 1.05-2.73 0.3-0.847 0.577-1.687 0.83-2.52 0.247-0.833 0.503-1.75 0.77-2.75v0c-1.567 0.5-3.007 1.083-4.32 1.75-1.32 0.667-2.413 1.367-3.28 2.1v0c-0.3-0.2-0.607-0.5-0.92-0.9-0.32-0.4-0.613-0.843-0.88-1.33-0.267-0.48-0.5-0.97-0.7-1.47-0.2-0.5-0.317-0.95-0.35-1.35v0c0.967-0.667 2.167-1.283 3.6-1.85 1.433-0.567 2.967-1.06 4.6-1.48 1.633-0.413 3.327-0.737 5.08-0.97 1.747-0.233 3.42-0.35 5.02-0.35v0c1.9 0 3.617 0.24 5.15 0.72 1.533 0.487 2.833 1.163 3.9 2.03 1.067 0.867 1.883 1.9 2.45 3.1 0.567 1.2 0.85 2.533 0.85 4zM30.2-32.95v0c-1.267 0-2.567 0.1-3.9 0.3v0l0.6 0.9c-0.333 0.433-0.75 1.083-1.25 1.95-0.5 0.867-1.05 1.907-1.65 3.12-0.6 1.22-1.257 2.58-1.97 4.08-0.72 1.5-1.48 3.083-2.28 4.75v0c2.6 0 4.967-0.24 7.1-0.72 2.133-0.487 3.96-1.157 5.48-2.01 1.513-0.847 2.697-1.837 3.55-2.97 0.847-1.133 1.27-2.35 1.27-3.65v0c0-1.733-0.583-3.127-1.75-4.18-1.167-1.047-2.9-1.57-5.2-1.57zM35.4-1v0c0.167-0.967 0.457-2.243 0.87-3.83 0.42-1.58 0.913-3.263 1.48-5.05 0.567-1.78 1.167-3.57 1.8-5.37 0.633-1.8 1.25-3.417 1.85-4.85v0c0.433-1.033 0.817-1.843 1.15-2.43 0.333-0.58 0.7-1.07 1.1-1.47v0c0.467 0.067 0.95 0.183 1.45 0.35 0.5 0.167 0.983 0.367 1.45 0.6 0.467 0.233 0.883 0.473 1.25 0.72 0.367 0.253 0.65 0.497 0.85 0.73v0c-0.9 1.067-1.693 2.283-2.38 3.65-0.68 1.367-1.37 3.117-2.07 5.25v0c1.8-1.6 3.393-3.133 4.78-4.6 1.38-1.467 2.67-3.1 3.87-4.9v0c0.2-0.167 0.55-0.25 1.05-0.25v0c0.467 0 0.917 0.073 1.35 0.22 0.433 0.153 0.733 0.363 0.9 0.63v0c-0.6 1.6-0.9 3.183-0.9 4.75v0c0 1.467 0.217 2.567 0.65 3.3v0c-0.033 0.2-0.257 0.583-0.67 1.15-0.42 0.567-0.88 1.1-1.38 1.6v0c-0.9-0.467-1.7-1.11-2.4-1.93-0.7-0.813-1.217-1.703-1.55-2.67v0c-1.567 1.1-2.9 2.173-4 3.22-1.1 1.053-2.04 2.22-2.82 3.5-0.787 1.287-1.453 2.763-2 4.43-0.553 1.667-1.08 3.65-1.58 5.95v0c-0.3-0.033-0.66-0.14-1.08-0.32-0.413-0.187-0.83-0.413-1.25-0.68-0.413-0.267-0.787-0.55-1.12-0.85-0.333-0.3-0.55-0.583-0.65-0.85zM56.8-3.35v0c0-0.3 0.027-0.677 0.08-1.13 0.047-0.447 0.137-1.047 0.27-1.8 0.133-0.747 0.31-1.653 0.53-2.72 0.213-1.067 0.487-2.35 0.82-3.85v0c0.067-0.333 0.217-0.867 0.45-1.6 0.233-0.733 0.543-1.51 0.93-2.33 0.38-0.813 0.847-1.603 1.4-2.37 0.547-0.767 1.203-1.333 1.97-1.7v0c0.567 0.133 1.317 0.473 2.25 1.02 0.933 0.553 1.733 1.313 2.4 2.28v0c-0.767 0.867-1.407 1.733-1.92 2.6-0.52 0.867-0.987 1.767-1.4 2.7-0.42 0.933-0.803 1.9-1.15 2.9-0.353 1-0.747 2.05-1.18 3.15v0c-0.367 0.933-0.7 1.89-1 2.87-0.3 0.987-0.467 1.847-0.5 2.58v0c0 0.6-0.007 1.027-0.02 1.28-0.02 0.247-0.113 0.37-0.28 0.37v0c-0.133 0-0.4-0.083-0.8-0.25-0.4-0.167-0.807-0.427-1.22-0.78-0.42-0.347-0.797-0.787-1.13-1.32-0.333-0.533-0.5-1.167-0.5-1.9zM66.35-25.05v0c0-0.2 0.05-0.5 0.15-0.9v0c-0.167-0.167-0.307-0.417-0.42-0.75-0.12-0.333-0.18-0.633-0.18-0.9v0c0-0.3 0.043-0.71 0.13-1.23 0.08-0.513 0.187-1.07 0.32-1.67 0.133-0.6 0.3-1.227 0.5-1.88 0.2-0.647 0.4-1.237 0.6-1.77v0c0.4 0 0.893 0.107 1.48 0.32 0.58 0.22 1.17 0.503 1.77 0.85 0.6 0.353 1.15 0.737 1.65 1.15 0.5 0.42 0.883 0.813 1.15 1.18v0c-0.367 0.367-0.85 0.873-1.45 1.52-0.6 0.653-1.183 1.337-1.75 2.05-0.567 0.72-1.083 1.397-1.55 2.03-0.467 0.633-0.767 1.083-0.9 1.35v0c-0.4-0.067-0.75-0.243-1.05-0.53-0.3-0.28-0.45-0.553-0.45-0.82zM87.35-7.75v0c-0.767 2.433-1.533 4.65-2.3 6.65-0.767 2-1.583 3.84-2.45 5.52-0.867 1.687-1.8 3.24-2.8 4.66-1 1.413-2.1 2.753-3.3 4.02v0c-1.533 1.6-3.117 2.827-4.75 3.68-1.633 0.847-3.267 1.27-4.9 1.27v0c-0.833 0-1.657-0.09-2.47-0.27-0.82-0.187-1.587-0.437-2.3-0.75-0.72-0.32-1.353-0.687-1.9-1.1-0.553-0.42-0.947-0.863-1.18-1.33v0c0-0.4 0.233-0.75 0.7-1.05v0c0.4 0.367 0.733 0.65 1 0.85 0.267 0.2 0.527 0.367 0.78 0.5 0.247 0.133 0.513 0.217 0.8 0.25 0.28 0.033 0.603 0.05 0.97 0.05v0c1.9 0 3.76-0.557 5.58-1.67 1.813-1.12 3.53-2.703 5.15-4.75 1.613-2.053 3.087-4.537 4.42-7.45 1.333-2.92 2.467-6.18 3.4-9.78v0c-0.433 0.667-0.967 1.483-1.6 2.45-0.633 0.967-1.333 1.923-2.1 2.87-0.767 0.953-1.557 1.813-2.37 2.58-0.82 0.767-1.613 1.283-2.38 1.55v0c-0.533-0.033-1.093-0.14-1.68-0.32-0.58-0.187-1.127-0.447-1.64-0.78-0.52-0.333-0.98-0.733-1.38-1.2-0.4-0.467-0.667-1-0.8-1.6v0c0-0.967 0.033-1.743 0.1-2.33 0.067-0.58 0.183-1.22 0.35-1.92v0c0.3-1.267 0.743-2.7 1.33-4.3 0.58-1.6 1.26-3.177 2.04-4.73 0.787-1.547 1.657-2.997 2.61-4.35 0.947-1.347 1.937-2.403 2.97-3.17v0c0.267 0 0.6 0.023 1 0.07 0.4 0.053 0.817 0.147 1.25 0.28 0.433 0.133 0.85 0.29 1.25 0.47 0.4 0.187 0.75 0.43 1.05 0.73v0c-0.367 0.333-1.167 1.45-2.4 3.35-1.233 1.9-2.6 4.633-4.1 8.2v0c-0.167 0.367-0.367 0.9-0.6 1.6-0.233 0.7-0.457 1.433-0.67 2.2-0.22 0.767-0.413 1.517-0.58 2.25-0.167 0.733-0.25 1.317-0.25 1.75v0c0 0.267 0.043 0.467 0.13 0.6 0.08 0.133 0.153 0.233 0.22 0.3v0c0.6-0.1 1.4-0.593 2.4-1.48 1-0.88 2.133-2.253 3.4-4.12v0c0.8-1.2 1.533-2.393 2.2-3.58 0.667-1.18 1.327-2.37 1.98-3.57 0.647-1.2 1.32-2.433 2.02-3.7 0.7-1.267 1.45-2.567 2.25-3.9v0c0.433 0 0.9 0.05 1.4 0.15 0.5 0.1 0.983 0.223 1.45 0.37 0.467 0.153 0.877 0.32 1.23 0.5 0.347 0.187 0.603 0.38 0.77 0.58v0c-1.033 2.2-2 4.35-2.9 6.45-0.9 2.1-1.7 4.25-2.4 6.45zM110.25-20.2v0c0.333 0 0.727 0.057 1.18 0.17 0.447 0.12 0.853 0.27 1.22 0.45 0.367 0.187 0.677 0.38 0.93 0.58 0.247 0.2 0.37 0.383 0.37 0.55v0c-0.667 1.4-1.283 2.807-1.85 4.22-0.567 1.42-1.05 2.78-1.45 4.08-0.4 1.3-0.707 2.517-0.92 3.65-0.22 1.133-0.33 2.117-0.33 2.95v0c0 0.933 0.1 1.707 0.3 2.32 0.2 0.62 0.533 1.063 1 1.33v0c-0.4 0.267-0.917 0.483-1.55 0.65-0.633 0.167-1.2 0.25-1.7 0.25v0c-1.8 0-2.7-1.233-2.7-3.7v0c0-1.9 0.633-4.5 1.9-7.8v0c-0.667 1.533-1.433 2.973-2.3 4.32-0.867 1.353-1.75 2.547-2.65 3.58-0.9 1.033-1.807 1.873-2.72 2.52-0.92 0.653-1.763 1.047-2.53 1.18v0c-1.233-0.067-2.233-0.66-3-1.78-0.767-1.113-1.15-2.537-1.15-4.27v0c0-1.867 0.4-3.833 1.2-5.9 0.8-2.067 1.827-3.983 3.08-5.75 1.247-1.767 2.603-3.243 4.07-4.43 1.467-1.18 2.883-1.803 4.25-1.87v0c0.333 0.1 0.71 0.3 1.13 0.6 0.413 0.3 0.813 0.65 1.2 1.05 0.38 0.4 0.703 0.807 0.97 1.22 0.267 0.42 0.417 0.78 0.45 1.08v0c-1.333 0.2-2.707 0.85-4.12 1.95-1.42 1.1-2.703 2.423-3.85 3.97-1.153 1.553-2.097 3.213-2.83 4.98-0.733 1.767-1.1 3.417-1.1 4.95v0c0 0.633 0.233 1.033 0.7 1.2v0c0.967-0.2 2.083-1.027 3.35-2.48 1.267-1.447 2.8-3.687 4.6-6.72v0c0.333-0.6 0.71-1.267 1.13-2 0.413-0.733 0.837-1.5 1.27-2.3 0.433-0.8 0.86-1.607 1.28-2.42 0.413-0.82 0.803-1.613 1.17-2.38zM124.6-24.25v0c0.867 0.267 1.683 0.857 2.45 1.77 0.767 0.92 1.333 1.93 1.7 3.03v0c-0.367 0.9-0.933 1.983-1.7 3.25-0.767 1.267-1.533 2.557-2.3 3.87-0.767 1.32-1.457 2.57-2.07 3.75-0.62 1.187-0.98 2.163-1.08 2.93v0c0.533-0.567 1.127-1.227 1.78-1.98 0.647-0.747 1.28-1.497 1.9-2.25 0.613-0.747 1.187-1.43 1.72-2.05 0.533-0.613 0.95-1.07 1.25-1.37v0c0.633-0.667 1.383-1.443 2.25-2.33 0.867-0.88 1.777-1.713 2.73-2.5 0.947-0.78 1.903-1.447 2.87-2 0.967-0.547 1.85-0.82 2.65-0.82v0c0.867 0 1.593 0.29 2.18 0.87 0.58 0.587 1.037 1.197 1.37 1.83v0c0 0.067-0.123 0.157-0.37 0.27-0.253 0.12-0.613 0.447-1.08 0.98v0c-0.467 0.6-0.99 1.423-1.57 2.47-0.587 1.053-1.153 2.187-1.7 3.4-0.553 1.22-1.013 2.463-1.38 3.73-0.367 1.267-0.55 2.417-0.55 3.45v0c0 0.833 0.11 1.367 0.33 1.6 0.213 0.233 0.52 0.35 0.92 0.35v0c0.367 0 0.75-0.083 1.15-0.25 0.4-0.167 0.717-0.25 0.95-0.25v0c0.133 0.067 0.243 0.207 0.33 0.42 0.08 0.22 0.12 0.413 0.12 0.58v0c-0.267 0.233-0.583 0.467-0.95 0.7-0.367 0.233-0.75 0.45-1.15 0.65-0.4 0.2-0.79 0.367-1.17 0.5-0.387 0.133-0.73 0.2-1.03 0.2v0c-0.967 0-1.757-0.14-2.37-0.42-0.62-0.287-1.103-0.663-1.45-1.13-0.353-0.467-0.597-1.027-0.73-1.68-0.133-0.647-0.2-1.337-0.2-2.07v0c0-0.4 0.033-0.85 0.1-1.35 0.067-0.5 0.2-1.093 0.4-1.78 0.2-0.68 0.483-1.497 0.85-2.45 0.367-0.947 0.833-2.087 1.4-3.42v0c-0.067 0-0.517 0.233-1.35 0.7-0.833 0.467-1.733 1.183-2.7 2.15v0c-1.567 1.5-2.973 2.983-4.22 4.45-1.253 1.467-2.53 3.1-3.83 4.9v0c-0.733 1.033-1.373 1.907-1.92 2.62-0.553 0.72-1.03 1.197-1.43 1.43v0c-0.7-0.4-1.217-0.957-1.55-1.67-0.333-0.72-0.583-1.463-0.75-2.23v0c0-0.633 0.093-1.433 0.28-2.4 0.18-0.967 0.43-2.043 0.75-3.23 0.313-1.18 0.703-2.42 1.17-3.72 0.467-1.3 0.983-2.6 1.55-3.9v0c1.267-2.933 2.427-5.233 3.48-6.9 1.047-1.667 1.703-2.567 1.97-2.7zM160.75-19.9v0c-0.033 0.633-0.14 1.29-0.32 1.97-0.187 0.687-0.413 1.307-0.68 1.86-0.267 0.547-0.55 1.003-0.85 1.37-0.3 0.367-0.583 0.55-0.85 0.55v0c-0.367-0.033-0.583-0.283-0.65-0.75v0c0-0.1 0.043-0.26 0.13-0.48 0.08-0.213 0.17-0.453 0.27-0.72 0.1-0.267 0.193-0.533 0.28-0.8 0.08-0.267 0.12-0.5 0.12-0.7v0c0-0.467-0.107-0.86-0.32-1.18-0.22-0.313-0.513-0.47-0.88-0.47v0c-1.333 0-2.35 0.833-3.05 2.5-0.7 1.667-1.05 4.117-1.05 7.35v0c0 0.333 0.017 0.533 0.05 0.6v0c0.7-0.033 1.327-0.06 1.88-0.08 0.547-0.013 1.087-0.02 1.62-0.02v0c0.033 0.067 0.05 0.2 0.05 0.4v0c0 0.3-0.067 0.517-0.2 0.65v0c-0.767 0.167-1.377 0.307-1.83 0.42-0.447 0.12-0.787 0.23-1.02 0.33-0.233 0.1-0.373 0.207-0.42 0.32-0.053 0.12-0.08 0.28-0.08 0.48v0c0 0.267 0.007 0.533 0.02 0.8 0.02 0.267 0.03 0.6 0.03 1v0c0 2.8-0.76 5.05-2.28 6.75-1.513 1.7-3.62 2.683-6.32 2.95v0c-0.467-0.033-0.95-0.167-1.45-0.4-0.5-0.233-0.973-0.533-1.42-0.9-0.453-0.367-0.847-0.773-1.18-1.22-0.333-0.453-0.567-0.913-0.7-1.38v0c0-1.267 0.267-2.477 0.8-3.63 0.533-1.147 1.26-2.163 2.18-3.05 0.913-0.88 1.997-1.597 3.25-2.15 1.247-0.547 2.603-0.87 4.07-0.97v0c0-0.833-0.083-1.65-0.25-2.45-0.167-0.8-0.34-1.577-0.52-2.33-0.187-0.747-0.363-1.48-0.53-2.2-0.167-0.713-0.25-1.42-0.25-2.12v0c0-0.9 0.183-1.793 0.55-2.68 0.367-0.88 0.85-1.697 1.45-2.45 0.6-0.747 1.3-1.387 2.1-1.92 0.8-0.533 1.633-0.9 2.5-1.1v0c0.367 0.1 0.857 0.39 1.47 0.87 0.62 0.487 1.23 1.03 1.83 1.63 0.6 0.6 1.133 1.207 1.6 1.82 0.467 0.62 0.75 1.13 0.85 1.53zM144.25 2.9v0c0.8-0.333 1.56-0.817 2.28-1.45 0.713-0.633 1.337-1.35 1.87-2.15 0.533-0.8 0.96-1.65 1.28-2.55 0.313-0.9 0.47-1.783 0.47-2.65v0c-0.667 0.1-1.4 0.407-2.2 0.92-0.8 0.52-1.55 1.137-2.25 1.85-0.7 0.72-1.283 1.463-1.75 2.23-0.467 0.767-0.7 1.433-0.7 2v0c0 0.733 0.333 1.333 1 1.8zM160.75-0.85v0c0-1.167 0.117-2.543 0.35-4.13 0.233-1.58 0.577-3.27 1.03-5.07 0.447-1.8 0.98-3.683 1.6-5.65 0.613-1.967 1.303-3.933 2.07-5.9v0c0.667-1.767 1.443-3.55 2.33-5.35 0.88-1.8 1.837-3.567 2.87-5.3 1.033-1.733 2.11-3.383 3.23-4.95 1.113-1.567 2.237-3 3.37-4.3v0c0.533 0 1.11 0.067 1.73 0.2 0.613 0.133 1.213 0.307 1.8 0.52 0.58 0.22 1.113 0.48 1.6 0.78 0.48 0.3 0.87 0.6 1.17 0.9v0c-2.5 2.567-4.75 5.157-6.75 7.77-2 2.62-3.583 5.08-4.75 7.38v0c-0.633 1.267-1.207 2.45-1.72 3.55-0.52 1.1-0.997 2.19-1.43 3.27-0.433 1.087-0.823 2.17-1.17 3.25-0.353 1.087-0.68 2.23-0.98 3.43v0c6.4-8.167 11.15-12.25 14.25-12.25v0c0.867 0 1.8 0.283 2.8 0.85 1 0.567 1.883 1.333 2.65 2.3v0c-1.033 1.133-2.1 2.5-3.2 4.1-1.1 1.6-2.107 3.207-3.02 4.82-0.92 1.62-1.67 3.12-2.25 4.5-0.587 1.387-0.88 2.413-0.88 3.08v0c0 0.333 0.05 0.557 0.15 0.67 0.1 0.12 0.317 0.18 0.65 0.18v0c0.5 0 0.9-0.067 1.2-0.2 0.3-0.133 0.483-0.2 0.55-0.2v0c0.167 0.267 0.267 0.45 0.3 0.55 0.033 0.1 0.05 0.183 0.05 0.25v0c0 0.133-0.2 0.323-0.6 0.57-0.4 0.253-0.873 0.503-1.42 0.75-0.553 0.253-1.097 0.48-1.63 0.68-0.533 0.2-0.933 0.3-1.2 0.3v0c-0.333 0-0.667-0.09-1-0.27-0.333-0.187-0.623-0.43-0.87-0.73-0.253-0.3-0.453-0.633-0.6-1-0.153-0.367-0.23-0.75-0.23-1.15v0c0-0.5 0.143-1.243 0.43-2.23 0.28-0.98 0.67-2.13 1.17-3.45 0.5-1.313 1.1-2.753 1.8-4.32 0.7-1.567 1.45-3.167 2.25-4.8v0c0-0.133-0.067-0.2-0.2-0.2v0c-0.1 0-0.357 0.133-0.77 0.4-0.42 0.267-0.813 0.533-1.18 0.8v0c-1.2 0.9-2.407 2.007-3.62 3.32-1.22 1.32-2.403 2.763-3.55 4.33-1.153 1.567-2.237 3.223-3.25 4.97-1.02 1.753-1.897 3.513-2.63 5.28v0c-0.1 0.233-0.25 0.45-0.45 0.65-0.2 0.2-0.367 0.3-0.5 0.3v0c-0.1 0-0.24-0.117-0.42-0.35-0.187-0.233-0.353-0.523-0.5-0.87-0.153-0.353-0.297-0.713-0.43-1.08-0.133-0.367-0.2-0.683-0.2-0.95z" fill="#915eff" fill-rule="nonzero" stroke="none" stroke-width="1" stroke-linecap="butt" stroke-linejoin="miter" stroke-miterlimit="10" stroke-dasharray="" stroke-dashoffset="0" font-family="none" font-weight="none" font-size="none" text-anchor="none" style="mix-blend-mode: normal" data-fill-palette-color="primary" opacity="1"></path><path transform="translate(0,62.55)" d="M16.7-15.85v0c2.067-3.067 4.11-5.893 6.13-8.48 2.013-2.58 3.937-4.803 5.77-6.67 1.833-1.867 3.517-3.317 5.05-4.35 1.533-1.033 2.867-1.55 4-1.55v0c0.433 0 0.91 0.167 1.43 0.5 0.513 0.333 0.997 0.767 1.45 1.3 0.447 0.533 0.82 1.107 1.12 1.72 0.3 0.62 0.45 1.213 0.45 1.78v0c-2.067 0.667-4.093 1.54-6.08 2.62-1.98 1.087-3.877 2.337-5.69 3.75-1.82 1.42-3.553 2.997-5.2 4.73-1.653 1.733-3.147 3.583-4.48 5.55v0c0.533 1.367 1.193 2.823 1.98 4.37 0.78 1.553 1.637 3.053 2.57 4.5 0.933 1.453 1.933 2.797 3 4.03 1.067 1.233 2.15 2.217 3.25 2.95v0c-0.167 0.367-0.45 0.717-0.85 1.05-0.4 0.333-0.833 0.643-1.3 0.93-0.467 0.28-0.957 0.503-1.47 0.67-0.52 0.167-0.997 0.25-1.43 0.25v0c-0.867 0-1.667-0.407-2.4-1.22-0.733-0.82-1.473-2.057-2.22-3.71-0.753-1.647-1.537-3.697-2.35-6.15-0.82-2.447-1.73-5.303-2.73-8.57zM9.15 4.05v0c-1.267-0.3-2.317-0.823-3.15-1.57-0.833-0.753-1.6-1.697-2.3-2.83v0c0.3-0.633 0.66-1.467 1.08-2.5 0.413-1.033 0.92-2.31 1.52-3.83 0.6-1.513 1.317-3.33 2.15-5.45 0.833-2.113 1.8-4.587 2.9-7.42v0c0.7-1.8 1.277-3.317 1.73-4.55 0.447-1.233 0.83-2.443 1.15-3.63 0.313-1.18 0.62-2.487 0.92-3.92 0.3-1.433 0.65-3.25 1.05-5.45v0c1.4 0.267 2.677 0.883 3.83 1.85 1.147 0.967 2.137 2.133 2.97 3.5v0c-0.367 0.467-0.79 1.173-1.27 2.12-0.487 0.953-1.03 2.097-1.63 3.43-0.6 1.333-1.267 2.817-2 4.45-0.733 1.633-1.5 3.367-2.3 5.2v0c-1.8 4-3.217 7.657-4.25 10.97-1.033 3.32-1.833 6.53-2.4 9.63zM48.5-1.1v0c-0.633-0.533-1.06-1.2-1.28-2-0.213-0.8-0.32-1.483-0.32-2.05v0c0-0.7 0.083-1.3 0.25-1.8v0c-0.133 0-0.433 0.267-0.9 0.8-0.467 0.533-0.977 1.167-1.53 1.9-0.547 0.733-1.087 1.45-1.62 2.15-0.533 0.7-0.933 1.217-1.2 1.55v0c-0.433 0.467-0.843 0.833-1.23 1.1-0.38 0.267-0.687 0.417-0.92 0.45v0c-0.533-0.033-1.093-0.14-1.68-0.32-0.58-0.187-1.13-0.447-1.65-0.78-0.513-0.333-0.963-0.733-1.35-1.2-0.38-0.467-0.637-1-0.77-1.6v0c0-0.933 0.027-1.7 0.08-2.3 0.047-0.6 0.153-1.25 0.32-1.95v0c0.3-1.267 0.74-2.7 1.32-4.3 0.587-1.6 1.263-3.177 2.03-4.73 0.767-1.547 1.627-2.997 2.58-4.35 0.947-1.347 1.953-2.403 3.02-3.17v0c0.3 0 0.65 0.023 1.05 0.07 0.4 0.053 0.807 0.147 1.22 0.28 0.42 0.133 0.823 0.29 1.21 0.47 0.38 0.187 0.703 0.43 0.97 0.73v0c-0.3 0.333-1.06 1.45-2.28 3.35-1.213 1.9-2.57 4.633-4.07 8.2v0c-0.167 0.367-0.367 0.9-0.6 1.6-0.233 0.7-0.467 1.433-0.7 2.2-0.233 0.767-0.423 1.517-0.57 2.25-0.153 0.733-0.23 1.317-0.23 1.75v0c0 0.267 0.04 0.467 0.12 0.6 0.087 0.133 0.163 0.233 0.23 0.3v0c0.5-0.2 1.133-0.75 1.9-1.65 0.767-0.9 1.833-2.283 3.2-4.15v0c0.333-0.467 0.723-1 1.17-1.6 0.453-0.6 0.913-1.243 1.38-1.93 0.467-0.68 0.907-1.387 1.32-2.12 0.42-0.733 0.763-1.467 1.03-2.2v0c0.133-0.4 0.307-0.877 0.52-1.43 0.22-0.547 0.49-1.12 0.81-1.72 0.313-0.6 0.677-1.21 1.09-1.83 0.42-0.613 0.913-1.187 1.48-1.72v0c0.433 0 0.9 0.05 1.4 0.15 0.5 0.1 0.973 0.223 1.42 0.37 0.453 0.153 0.847 0.32 1.18 0.5 0.333 0.187 0.583 0.38 0.75 0.58v0c-0.6 1.467-1.267 2.917-2 4.35-0.733 1.433-1.417 2.84-2.05 4.22-0.633 1.387-1.167 2.763-1.6 4.13-0.433 1.367-0.65 2.7-0.65 4v0c0 0.7 0.057 1.307 0.17 1.82 0.12 0.52 0.247 0.953 0.38 1.3 0.133 0.353 0.257 0.647 0.37 0.88 0.12 0.233 0.18 0.433 0.18 0.6v0c0 0.033-0.033 0.083-0.1 0.15v0c-0.033 0.033-0.067 0.05-0.1 0.05v0c-0.233 0-0.533-0.05-0.9-0.15-0.367-0.1-0.773-0.24-1.22-0.42-0.453-0.187-0.907-0.397-1.36-0.63-0.447-0.233-0.87-0.483-1.27-0.75zM59.55-3.2v0c0-1.467 0.35-3.527 1.05-6.18 0.7-2.647 1.683-5.737 2.95-9.27v0c2.067-5.633 4.01-10.327 5.83-14.08 1.813-3.747 3.587-6.67 5.32-8.77v0c0.4 0.067 0.89 0.233 1.47 0.5 0.587 0.267 1.163 0.557 1.73 0.87 0.567 0.32 1.073 0.647 1.52 0.98 0.453 0.333 0.747 0.6 0.88 0.8v0c-2.6 3.067-4.883 6.367-6.85 9.9-1.967 3.533-3.767 7.583-5.4 12.15v0c-1.4 3.933-2.467 7.473-3.2 10.62-0.733 3.153-1.1 5.78-1.1 7.88v0c0 0.567 0 0.917 0 1.05 0 0.133 0.017 0.267 0.05 0.4v0c-0.467-0.067-0.867-0.183-1.2-0.35-0.333-0.167-0.55-0.367-0.65-0.6v0c-0.067-0.167-0.25-0.407-0.55-0.72-0.3-0.32-0.567-0.563-0.8-0.73v0c-0.3-0.2-0.55-0.727-0.75-1.58-0.2-0.847-0.3-1.803-0.3-2.87zM88.65-19.9v0c-0.033 0.633-0.14 1.29-0.32 1.97-0.187 0.687-0.413 1.307-0.68 1.86-0.267 0.547-0.55 1.003-0.85 1.37-0.3 0.367-0.583 0.55-0.85 0.55v0c-0.367-0.033-0.583-0.283-0.65-0.75v0c0-0.1 0.04-0.26 0.12-0.48 0.087-0.213 0.18-0.453 0.28-0.72 0.1-0.267 0.19-0.533 0.27-0.8 0.087-0.267 0.13-0.5 0.13-0.7v0c0-0.467-0.107-0.86-0.32-1.18-0.22-0.313-0.513-0.47-0.88-0.47v0c-1.333 0-2.35 0.833-3.05 2.5-0.7 1.667-1.05 4.117-1.05 7.35v0c0 0.333 0.017 0.533 0.05 0.6v0c0.7-0.033 1.323-0.06 1.87-0.08 0.553-0.013 1.097-0.02 1.63-0.02v0c0.033 0.067 0.05 0.2 0.05 0.4v0c0 0.3-0.067 0.517-0.2 0.65v0c-0.767 0.167-1.373 0.307-1.82 0.42-0.453 0.12-0.797 0.23-1.03 0.33-0.233 0.1-0.377 0.207-0.43 0.32-0.047 0.12-0.07 0.28-0.07 0.48v0c0 0.267 0.01 0.533 0.03 0.8 0.013 0.267 0.02 0.6 0.02 1v0c0 2.8-0.757 5.05-2.27 6.75-1.52 1.7-3.63 2.683-6.33 2.95v0c-0.467-0.033-0.95-0.167-1.45-0.4-0.5-0.233-0.977-0.533-1.43-0.9-0.447-0.367-0.837-0.773-1.17-1.22-0.333-0.453-0.567-0.913-0.7-1.38v0c0-1.267 0.267-2.477 0.8-3.63 0.533-1.147 1.257-2.163 2.17-3.05 0.92-0.88 2.003-1.597 3.25-2.15 1.253-0.547 2.613-0.87 4.08-0.97v0c0-0.833-0.083-1.65-0.25-2.45-0.167-0.8-0.34-1.577-0.52-2.33-0.187-0.747-0.363-1.48-0.53-2.2-0.167-0.713-0.25-1.42-0.25-2.12v0c0-0.9 0.183-1.793 0.55-2.68 0.367-0.88 0.85-1.697 1.45-2.45 0.6-0.747 1.3-1.387 2.1-1.92 0.8-0.533 1.633-0.9 2.5-1.1v0c0.367 0.1 0.86 0.39 1.48 0.87 0.613 0.487 1.22 1.03 1.82 1.63 0.6 0.6 1.133 1.207 1.6 1.82 0.467 0.62 0.75 1.13 0.85 1.53zM72.15 2.9v0c0.8-0.333 1.557-0.817 2.27-1.45 0.72-0.633 1.347-1.35 1.88-2.15 0.533-0.8 0.96-1.65 1.28-2.55 0.313-0.9 0.47-1.783 0.47-2.65v0c-0.667 0.1-1.4 0.407-2.2 0.92-0.8 0.52-1.55 1.137-2.25 1.85-0.7 0.72-1.283 1.463-1.75 2.23-0.467 0.767-0.7 1.433-0.7 2v0c0 0.733 0.333 1.333 1 1.8zM88.65-0.85v0c0-1.167 0.117-2.543 0.35-4.13 0.233-1.58 0.573-3.27 1.02-5.07 0.453-1.8 0.99-3.683 1.61-5.65 0.613-1.967 1.303-3.933 2.07-5.9v0c0.667-1.767 1.44-3.55 2.32-5.35 0.887-1.8 1.847-3.567 2.88-5.3 1.033-1.733 2.11-3.383 3.23-4.95 1.113-1.567 2.237-3 3.37-4.3v0c0.533 0 1.107 0.067 1.72 0.2 0.62 0.133 1.22 0.307 1.8 0.52 0.587 0.22 1.123 0.48 1.61 0.78 0.48 0.3 0.87 0.6 1.17 0.9v0c-2.5 2.567-4.75 5.157-6.75 7.77-2 2.62-3.583 5.08-4.75 7.38v0c-0.633 1.267-1.21 2.45-1.73 3.55-0.513 1.1-0.987 2.19-1.42 3.27-0.433 1.087-0.827 2.17-1.18 3.25-0.347 1.087-0.67 2.23-0.97 3.43v0c6.4-8.167 11.15-12.25 14.25-12.25v0c0.867 0 1.8 0.283 2.8 0.85 1 0.567 1.883 1.333 2.65 2.3v0c-1.033 1.133-2.1 2.5-3.2 4.1-1.1 1.6-2.11 3.207-3.03 4.82-0.913 1.62-1.663 3.12-2.25 4.5-0.58 1.387-0.87 2.413-0.87 3.08v0c0 0.333 0.05 0.557 0.15 0.67 0.1 0.12 0.317 0.18 0.65 0.18v0c0.5 0 0.9-0.067 1.2-0.2 0.3-0.133 0.483-0.2 0.55-0.2v0c0.167 0.267 0.267 0.45 0.3 0.55 0.033 0.1 0.05 0.183 0.05 0.25v0c0 0.133-0.2 0.323-0.6 0.57-0.4 0.253-0.877 0.503-1.43 0.75-0.547 0.253-1.087 0.48-1.62 0.68-0.533 0.2-0.933 0.3-1.2 0.3v0c-0.333 0-0.667-0.09-1-0.27-0.333-0.187-0.627-0.43-0.88-0.73-0.247-0.3-0.447-0.633-0.6-1-0.147-0.367-0.22-0.75-0.22-1.15v0c0-0.5 0.143-1.243 0.43-2.23 0.28-0.98 0.67-2.13 1.17-3.45 0.5-1.313 1.1-2.753 1.8-4.32 0.7-1.567 1.45-3.167 2.25-4.8v0c0-0.133-0.067-0.2-0.2-0.2v0c-0.1 0-0.357 0.133-0.77 0.4-0.42 0.267-0.813 0.533-1.18 0.8v0c-1.2 0.9-2.41 2.007-3.63 3.32-1.213 1.32-2.397 2.763-3.55 4.33-1.147 1.567-2.23 3.223-3.25 4.97-1.013 1.753-1.887 3.513-2.62 5.28v0c-0.1 0.233-0.25 0.45-0.45 0.65-0.2 0.2-0.367 0.3-0.5 0.3v0c-0.1 0-0.243-0.117-0.43-0.35-0.18-0.233-0.347-0.523-0.5-0.87-0.147-0.353-0.287-0.713-0.42-1.08-0.133-0.367-0.2-0.683-0.2-0.95zM113.35-1v0c0.167-0.967 0.457-2.243 0.87-3.83 0.42-1.58 0.913-3.263 1.48-5.05 0.567-1.78 1.167-3.57 1.8-5.37 0.633-1.8 1.25-3.417 1.85-4.85v0c0.433-1.033 0.817-1.843 1.15-2.43 0.333-0.58 0.7-1.07 1.1-1.47v0c0.467 0.067 0.95 0.183 1.45 0.35 0.5 0.167 0.983 0.367 1.45 0.6 0.467 0.233 0.883 0.473 1.25 0.72 0.367 0.253 0.65 0.497 0.85 0.73v0c-0.9 1.067-1.693 2.283-2.38 3.65-0.68 1.367-1.37 3.117-2.07 5.25v0c1.8-1.6 3.39-3.133 4.77-4.6 1.387-1.467 2.68-3.1 3.88-4.9v0c0.2-0.167 0.55-0.25 1.05-0.25v0c0.467 0 0.917 0.073 1.35 0.22 0.433 0.153 0.733 0.363 0.9 0.63v0c-0.6 1.6-0.9 3.183-0.9 4.75v0c0 1.467 0.217 2.567 0.65 3.3v0c-0.033 0.2-0.26 0.583-0.68 1.15-0.413 0.567-0.87 1.1-1.37 1.6v0c-0.9-0.467-1.7-1.11-2.4-1.93-0.7-0.813-1.217-1.703-1.55-2.67v0c-1.567 1.1-2.9 2.173-4 3.22-1.1 1.053-2.043 2.22-2.83 3.5-0.78 1.287-1.447 2.763-2 4.43-0.547 1.667-1.07 3.65-1.57 5.95v0c-0.3-0.033-0.66-0.14-1.08-0.32-0.413-0.187-0.83-0.413-1.25-0.68-0.413-0.267-0.787-0.55-1.12-0.85-0.333-0.3-0.55-0.583-0.65-0.85zM152.6-20.7v0c-0.133 2.067-0.5 3.84-1.1 5.32-0.6 1.487-1.46 2.787-2.58 3.9-1.113 1.12-2.47 2.13-4.07 3.03-1.6 0.9-3.467 1.767-5.6 2.6v0c0 0.2-0.01 0.407-0.03 0.62-0.013 0.22-0.02 0.447-0.02 0.68v0c0 0.433 0.033 0.883 0.1 1.35 0.067 0.467 0.183 0.9 0.35 1.3 0.167 0.4 0.4 0.723 0.7 0.97 0.3 0.253 0.683 0.38 1.15 0.38v0c0.9 0 1.783-0.2 2.65-0.6 0.867-0.4 1.693-0.893 2.48-1.48 0.78-0.58 1.51-1.213 2.19-1.9 0.687-0.68 1.297-1.303 1.83-1.87v0c0.333 0.3 0.617 0.583 0.85 0.85v0c-1.5 2-3.143 3.657-4.93 4.97-1.78 1.32-3.47 2.163-5.07 2.53v0c-2.3-0.267-4.09-1.11-5.37-2.53-1.287-1.413-1.93-3.12-1.93-5.12v0c0-1.367 0.193-2.76 0.58-4.18 0.38-1.413 0.913-2.78 1.6-4.1 0.68-1.313 1.48-2.553 2.4-3.72 0.913-1.167 1.893-2.183 2.94-3.05 1.053-0.867 2.137-1.55 3.25-2.05 1.12-0.5 2.23-0.75 3.33-0.75v0c1.533 0.2 2.967 1.15 4.3 2.85zM149.15-19.05v0c-0.9 0.133-1.833 0.5-2.8 1.1-0.967 0.6-1.873 1.4-2.72 2.4-0.853 1-1.63 2.167-2.33 3.5-0.7 1.333-1.25 2.767-1.65 4.3v0c2.667-1.333 4.883-2.977 6.65-4.93 1.767-1.947 2.717-4.07 2.85-6.37zM172.15-19.9v0c-0.033 0.633-0.14 1.29-0.32 1.97-0.187 0.687-0.413 1.307-0.68 1.86-0.267 0.547-0.55 1.003-0.85 1.37-0.3 0.367-0.583 0.55-0.85 0.55v0c-0.367-0.033-0.583-0.283-0.65-0.75v0c0-0.1 0.043-0.26 0.13-0.48 0.08-0.213 0.17-0.453 0.27-0.72 0.1-0.267 0.193-0.533 0.28-0.8 0.08-0.267 0.12-0.5 0.12-0.7v0c0-0.467-0.107-0.86-0.32-1.18-0.22-0.313-0.513-0.47-0.88-0.47v0c-1.333 0-2.35 0.833-3.05 2.5-0.7 1.667-1.05 4.117-1.05 7.35v0c0 0.333 0.017 0.533 0.05 0.6v0c0.7-0.033 1.327-0.06 1.88-0.08 0.547-0.013 1.087-0.02 1.62-0.02v0c0.033 0.067 0.05 0.2 0.05 0.4v0c0 0.3-0.067 0.517-0.2 0.65v0c-0.767 0.167-1.373 0.307-1.82 0.42-0.453 0.12-0.797 0.23-1.03 0.33-0.233 0.1-0.373 0.207-0.42 0.32-0.053 0.12-0.08 0.28-0.08 0.48v0c0 0.267 0.01 0.533 0.03 0.8 0.013 0.267 0.02 0.6 0.02 1v0c0 2.8-0.757 5.05-2.27 6.75-1.52 1.7-3.63 2.683-6.33 2.95v0c-0.467-0.033-0.95-0.167-1.45-0.4-0.5-0.233-0.973-0.533-1.42-0.9-0.453-0.367-0.847-0.773-1.18-1.22-0.333-0.453-0.567-0.913-0.7-1.38v0c0-1.267 0.267-2.477 0.8-3.63 0.533-1.147 1.26-2.163 2.18-3.05 0.913-0.88 1.997-1.597 3.25-2.15 1.247-0.547 2.603-0.87 4.07-0.97v0c0-0.833-0.083-1.65-0.25-2.45-0.167-0.8-0.34-1.577-0.52-2.33-0.187-0.747-0.363-1.48-0.53-2.2-0.167-0.713-0.25-1.42-0.25-2.12v0c0-0.9 0.183-1.793 0.55-2.68 0.367-0.88 0.85-1.697 1.45-2.45 0.6-0.747 1.3-1.387 2.1-1.92 0.8-0.533 1.633-0.9 2.5-1.1v0c0.367 0.1 0.86 0.39 1.48 0.87 0.613 0.487 1.22 1.03 1.82 1.63 0.6 0.6 1.133 1.207 1.6 1.82 0.467 0.62 0.75 1.13 0.85 1.53zM155.65 2.9v0c0.8-0.333 1.56-0.817 2.28-1.45 0.713-0.633 1.337-1.35 1.87-2.15 0.533-0.8 0.96-1.65 1.28-2.55 0.313-0.9 0.47-1.783 0.47-2.65v0c-0.667 0.1-1.4 0.407-2.2 0.92-0.8 0.52-1.55 1.137-2.25 1.85-0.7 0.72-1.283 1.463-1.75 2.23-0.467 0.767-0.7 1.433-0.7 2v0c0 0.733 0.333 1.333 1 1.8zM178-19.15h-2.85c-0.167-0.2-0.317-0.627-0.45-1.28-0.133-0.647-0.2-1.203-0.2-1.67v0c0.867 0.067 1.7 0.123 2.5 0.17 0.8 0.053 1.533 0.097 2.2 0.13v0c0.5-1 1.043-1.993 1.63-2.98 0.58-0.98 1.147-1.88 1.7-2.7 0.547-0.813 1.063-1.503 1.55-2.07 0.48-0.567 0.853-0.933 1.12-1.1v0c0.333 0 0.76 0.057 1.28 0.17 0.513 0.12 1.037 0.27 1.57 0.45 0.533 0.187 1.017 0.38 1.45 0.58 0.433 0.2 0.733 0.4 0.9 0.6v0c-1 1.267-1.857 2.44-2.57 3.52-0.72 1.087-1.497 2.33-2.33 3.73v0c0.667 0 1.343-0.017 2.03-0.05 0.68-0.033 1.37-0.083 2.07-0.15v0c0.167 0.167 0.3 0.373 0.4 0.62 0.1 0.253 0.15 0.513 0.15 0.78v0c-1.633 0.6-3.617 0.933-5.95 1v0c-0.833 1.6-1.573 3.19-2.22 4.77-0.653 1.587-1.203 3.113-1.65 4.58-0.453 1.467-0.803 2.85-1.05 4.15-0.253 1.3-0.38 2.467-0.38 3.5v0c0 1.467 0.55 2.283 1.65 2.45v0c1-0.133 1.95-0.383 2.85-0.75 0.9-0.367 1.7-0.833 2.4-1.4v0c0.2 0.3 0.317 0.55 0.35 0.75v0c-0.2 0.3-0.54 0.65-1.02 1.05-0.487 0.4-1.013 0.793-1.58 1.18-0.567 0.38-1.117 0.703-1.65 0.97-0.533 0.267-0.933 0.417-1.2 0.45v0c-0.833-0.033-1.667-0.217-2.5-0.55-0.833-0.333-1.59-0.75-2.27-1.25-0.687-0.5-1.247-1.06-1.68-1.68-0.433-0.613-0.65-1.22-0.65-1.82v0c0-0.8 0.11-1.81 0.33-3.03 0.213-1.213 0.52-2.537 0.92-3.97 0.4-1.433 0.867-2.933 1.4-4.5 0.533-1.567 1.117-3.117 1.75-4.65zM189.75-0.85v0c0-1.167 0.117-2.543 0.35-4.13 0.233-1.58 0.577-3.27 1.03-5.07 0.447-1.8 0.98-3.683 1.6-5.65 0.613-1.967 1.303-3.933 2.07-5.9v0c0.667-1.767 1.443-3.55 2.33-5.35 0.88-1.8 1.837-3.567 2.87-5.3 1.033-1.733 2.11-3.383 3.23-4.95 1.113-1.567 2.237-3 3.37-4.3v0c0.533 0 1.11 0.067 1.73 0.2 0.613 0.133 1.213 0.307 1.8 0.52 0.58 0.22 1.113 0.48 1.6 0.78 0.48 0.3 0.87 0.6 1.17 0.9v0c-2.5 2.567-4.75 5.157-6.75 7.77-2 2.62-3.583 5.08-4.75 7.38v0c-0.633 1.267-1.207 2.45-1.72 3.55-0.52 1.1-0.997 2.19-1.43 3.27-0.433 1.087-0.823 2.17-1.17 3.25-0.353 1.087-0.68 2.23-0.98 3.43v0c6.4-8.167 11.15-12.25 14.25-12.25v0c0.867 0 1.8 0.283 2.8 0.85 1 0.567 1.883 1.333 2.65 2.3v0c-1.033 1.133-2.1 2.5-3.2 4.1-1.1 1.6-2.107 3.207-3.02 4.82-0.92 1.62-1.67 3.12-2.25 4.5-0.587 1.387-0.88 2.413-0.88 3.08v0c0 0.333 0.05 0.557 0.15 0.67 0.1 0.12 0.317 0.18 0.65 0.18v0c0.5 0 0.9-0.067 1.2-0.2 0.3-0.133 0.483-0.2 0.55-0.2v0c0.167 0.267 0.267 0.45 0.3 0.55 0.033 0.1 0.05 0.183 0.05 0.25v0c0 0.133-0.2 0.323-0.6 0.57-0.4 0.253-0.873 0.503-1.42 0.75-0.553 0.253-1.097 0.48-1.63 0.68-0.533 0.2-0.933 0.3-1.2 0.3v0c-0.333 0-0.667-0.09-1-0.27-0.333-0.187-0.623-0.43-0.87-0.73-0.253-0.3-0.453-0.633-0.6-1-0.153-0.367-0.23-0.75-0.23-1.15v0c0-0.5 0.143-1.243 0.43-2.23 0.28-0.98 0.67-2.13 1.17-3.45 0.5-1.313 1.1-2.753 1.8-4.32 0.7-1.567 1.45-3.167 2.25-4.8v0c0-0.133-0.067-0.2-0.2-0.2v0c-0.1 0-0.357 0.133-0.77 0.4-0.42 0.267-0.813 0.533-1.18 0.8v0c-1.2 0.9-2.407 2.007-3.62 3.32-1.22 1.32-2.403 2.763-3.55 4.33-1.153 1.567-2.237 3.223-3.25 4.97-1.02 1.753-1.897 3.513-2.63 5.28v0c-0.1 0.233-0.25 0.45-0.45 0.65-0.2 0.2-0.367 0.3-0.5 0.3v0c-0.1 0-0.24-0.117-0.42-0.35-0.187-0.233-0.353-0.523-0.5-0.87-0.153-0.353-0.297-0.713-0.43-1.08-0.133-0.367-0.2-0.683-0.2-0.95zM232.9-20.2v0c0.333 0 0.727 0.057 1.18 0.17 0.447 0.12 0.853 0.27 1.22 0.45 0.367 0.187 0.677 0.38 0.93 0.58 0.247 0.2 0.37 0.383 0.37 0.55v0c-0.667 1.4-1.283 2.807-1.85 4.22-0.567 1.42-1.05 2.78-1.45 4.08-0.4 1.3-0.707 2.517-0.92 3.65-0.22 1.133-0.33 2.117-0.33 2.95v0c0 0.933 0.1 1.707 0.3 2.32 0.2 0.62 0.533 1.063 1 1.33v0c-0.4 0.267-0.917 0.483-1.55 0.65-0.633 0.167-1.2 0.25-1.7 0.25v0c-1.8 0-2.7-1.233-2.7-3.7v0c0-1.9 0.633-4.5 1.9-7.8v0c-0.667 1.533-1.433 2.973-2.3 4.32-0.867 1.353-1.75 2.547-2.65 3.58-0.9 1.033-1.807 1.873-2.72 2.52-0.92 0.653-1.763 1.047-2.53 1.18v0c-1.233-0.067-2.233-0.66-3-1.78-0.767-1.113-1.15-2.537-1.15-4.27v0c0-1.867 0.4-3.833 1.2-5.9 0.8-2.067 1.827-3.983 3.08-5.75 1.247-1.767 2.603-3.243 4.07-4.43 1.467-1.18 2.883-1.803 4.25-1.87v0c0.333 0.1 0.71 0.3 1.13 0.6 0.413 0.3 0.813 0.65 1.2 1.05 0.38 0.4 0.703 0.807 0.97 1.22 0.267 0.42 0.417 0.78 0.45 1.08v0c-1.333 0.2-2.707 0.85-4.12 1.95-1.42 1.1-2.703 2.423-3.85 3.97-1.153 1.553-2.097 3.213-2.83 4.98-0.733 1.767-1.1 3.417-1.1 4.95v0c0 0.633 0.233 1.033 0.7 1.2v0c0.967-0.2 2.083-1.027 3.35-2.48 1.267-1.447 2.8-3.687 4.6-6.72v0c0.333-0.6 0.71-1.267 1.13-2 0.413-0.733 0.837-1.5 1.27-2.3 0.433-0.8 0.86-1.607 1.28-2.42 0.413-0.82 0.803-1.613 1.17-2.38z" fill="#915eff" fill-rule="nonzero" stroke="none" stroke-width="1" stroke-linecap="butt" stroke-linejoin="miter" stroke-miterlimit="10" stroke-dasharray="" stroke-dashoffset="0" font-family="none" font-weight="none" font-size="none" text-anchor="none" style="mix-blend-mode: normal" data-fill-palette-color="primary" opacity="1"></path></g></svg></g></svg></g></svg></g></svg></g><g transform="matrix(1,0,0,1,0,0.4999999999999858)"><svg viewBox="0 0 164.397295584946 200" height="200" width="164.397295584946"><g><svg xmlns="http://www.w3.org/2000/svg" xmlns:xlink="http://www.w3.org/1999/xlink" version="1.1" x="0" y="0" viewBox="29.299 0.9386491851742842 231.056 281.0946483978025" enable-background="new 0 0 283.46 283.46" xml:space="preserve" height="200" width="164.397295584946" class="icon-icon-0" data-fill-palette-color="accent" id="icon-0"><path d="M214.057 218.789c-0.062-0.049-1.818-0.99-4.425-2.384h-0.004c-7.868-4.198-23.471-12.471-23.471-12.471-0.4-0.212-1.609-1.011-2.738-0.39l-20.438 12.865-9.494 5.973c-0.662 0.48-0.588 1.267 0.52 1.863l26.843 14.19c1.83 0.974 2.321 0.608 3.422 0.026l29.517-18.649C214.419 219.421 214.38 219.03 214.057 218.789zM183.105 236.621l-0.373 0.188c-0.336-0.039-0.549-0.13-0.861-0.295l-25.401-13.43 27.926-17.58c0.123 0.037 0.707 0.338 0.746 0.357l25.342 13.463L183.105 236.621z" fill="#dcdcdc" data-fill-palette-color="accent"></path><path d="M207.766 175.229c-0.349-0.433-0.834-0.821-1.451-1.129-2.25-1.13-5.647-1.031-7.711 0.267-0.201 0.127-0.385 0.26-0.547 0.398-0.388 0.169-0.761 0.361-1.115 0.587-3.541 2.228-3.272 4.628-1.28 6.321-0.236-0.182-0.502-0.35-0.8-0.498-2.25-1.129-5.647-1.03-7.711 0.268-0.203 0.126-0.385 0.26-0.547 0.398-0.388 0.169-0.76 0.363-1.115 0.588-3.541 2.229-3.272 4.628-1.28 6.32-0.236-0.182-0.502-0.349-0.799-0.498-2.25-1.129-5.648-1.031-7.714 0.268-0.2 0.128-0.383 0.262-0.545 0.398-0.387 0.168-0.76 0.363-1.114 0.588-3.541 2.229-3.273 4.629-1.281 6.322-0.236-0.184-0.504-0.351-0.799-0.498-2.25-1.131-5.65-1.033-7.713 0.265-0.201 0.128-0.384 0.262-0.548 0.399-0.385 0.168-0.758 0.362-1.112 0.588-3.541 2.228-3.273 4.629-1.283 6.32-0.234-0.182-0.502-0.349-0.799-0.497-2.248-1.13-5.648-1.032-7.711 0.267-0.201 0.128-0.383 0.262-0.547 0.4-0.08 0.033-0.16 0.071-0.24 0.112h-0.012c-0.298 0.142-0.584 0.298-0.863 0.474-3.539 2.229-3.271 4.629-1.281 6.32-0.234-0.182-0.502-0.35-0.799-0.498-2.248-1.127-5.648-1.029-7.709 0.268-0.203 0.127-0.385 0.262-0.547 0.399-0.387 0.168-0.76 0.362-1.117 0.586-3.11 1.959-3.281 4.05-1.925 5.677 0.187 0.226 0.403 0.44 0.644 0.646-0.235-0.182-0.502-0.35-0.798-0.498-0.105-0.053-0.213-0.104-0.324-0.146v-0.004c-1.952-0.842-4.615-0.838-6.569-0.002h-0.015c-0.285 0.123-0.554 0.264-0.804 0.42-0.202 0.127-0.384 0.262-0.546 0.399-0.386 0.167-0.759 0.362-1.116 0.586-3.54 2.229-3.272 4.629-1.282 6.321-0.235-0.182-0.502-0.35-0.798-0.497-2.25-1.13-5.649-1.031-7.711 0.267-0.202 0.127-0.384 0.262-0.547 0.4-0.386 0.167-0.759 0.361-1.115 0.586-3.54 2.227-3.272 4.627-1.282 6.32-0.235-0.182-0.502-0.35-0.799-0.498-2.25-1.129-5.648-1.03-7.71 0.268-0.202 0.126-0.384 0.262-0.547 0.398-0.386 0.168-0.759 0.363-1.115 0.588-8.295 5.219 4.316 11.391 11.023 7.172 4.291-2.701 2.988-5.655-0.198-7.294-0.134-0.165-0.288-0.325-0.462-0.478 2.751 2.162 8.358 3.057 12.114 0.695 4.291-2.7 2.988-5.656-0.198-7.296-0.134-0.166-0.288-0.326-0.462-0.476 2.751 2.16 8.358 3.057 12.114 0.692 4.292-2.7 2.988-5.653-0.197-7.295-0.135-0.165-0.289-0.325-0.463-0.478 2.75 2.162 8.359 3.06 12.114 0.694 0.778-0.489 1.375-0.987 1.807-1.489h0.004c1.943-2.242 0.598-4.463-2.008-5.804-0.135-0.167-0.289-0.327-0.463-0.479 2.75 2.164 8.358 3.061 12.112 0.695 4.291-2.699 2.988-5.654-0.196-7.293-0.097-0.119-0.203-0.234-0.32-0.345v-0.003c-0.045-0.045-0.094-0.087-0.143-0.131 0.055 0.044 0.108 0.086 0.166 0.134h0.01c2.807 2.063 8.26 2.876 11.938 0.562 0.299-0.188 0.568-0.375 0.814-0.562v-0.002c3.287-2.539 1.953-5.203-1.012-6.729-0.134-0.166-0.289-0.326-0.464-0.479 2.752 2.164 8.359 3.06 12.113 0.696 4.291-2.699 2.987-5.653-0.197-7.295-0.135-0.168-0.289-0.326-0.463-0.478 2.752 2.161 8.358 3.058 12.115 0.694 4.289-2.699 2.985-5.655-0.199-7.293-0.133-0.168-0.287-0.327-0.463-0.479 2.752 2.161 8.358 3.059 12.114 0.693C212.253 179.823 210.951 176.869 207.766 175.229zM107.848 232.361c3.254-2.048 9.603 0.266 6.413 2.271C111.007 236.68 104.658 234.369 107.848 232.361zM116.674 234.16c1.244 1.082 1.014 2.194-1.207 3.594-2.778 1.746-6.686 1.315-9.444-0.068-2.381-1.193-2.14-2.696-0.652-3.824 0.149 0.934 0.86 1.824 2.05 2.424 2.25 1.129 5.648 1.03 7.71-0.268C115.976 235.485 116.479 234.835 116.674 234.16zM119.301 225.285c3.253-2.049 9.602 0.266 6.413 2.271C122.46 229.604 116.111 227.292 119.301 225.285zM128.127 227.082c1.244 1.082 1.014 2.196-1.207 3.594-2.778 1.748-6.686 1.318-9.444-0.064-2.38-1.195-2.14-2.699-0.652-3.826 0.149 0.936 0.859 1.826 2.049 2.424 2.25 1.129 5.649 1.029 7.711-0.268C127.429 228.41 127.932 227.759 128.127 227.082zM130.754 218.208c3.254-2.049 9.603 0.266 6.413 2.271C133.913 222.529 127.564 220.214 130.754 218.208zM139.58 220.007c1.244 1.08 1.016 2.195-1.206 3.592-2.779 1.748-6.686 1.318-9.444-0.064-2.38-1.195-2.14-2.697-0.652-3.826 0.149 0.935 0.859 1.826 2.049 2.424 2.25 1.13 5.649 1.029 7.711-0.269C138.882 221.332 139.387 220.682 139.58 220.007zM142.207 211.132c3.253-2.049 9.604 0.265 6.414 2.271C145.367 215.451 139.018 213.139 142.207 211.132zM151.033 212.929c1.213 1.055 1.025 2.137-1.035 3.48v0.002c-0.055 0.037-0.113 0.073-0.172 0.111-2.777 1.748-6.686 1.316-9.443-0.066-0.027-0.015-0.053-0.026-0.078-0.047h-0.01c-2.285-1.188-2.033-2.664-0.562-3.779 0.148 0.936 0.857 1.826 2.049 2.424 2.25 1.13 5.648 1.031 7.711-0.268C150.335 214.255 150.839 213.605 151.033 212.929zM162.486 205.853c1.246 1.082 1.016 2.193-1.207 3.593-2.777 1.749-6.684 1.318-9.443-0.065-2.381-1.195-2.139-2.697-0.649-3.825 0.147 0.935 0.856 1.825 2.049 2.423 2.25 1.13 5.647 1.032 7.711-0.266C161.789 207.182 162.292 206.529 162.486 205.853zM160.074 206.328c-3.254 2.047-9.604-0.266-6.414-2.273C156.914 202.007 163.264 204.32 160.074 206.328zM165.113 196.979c3.254-2.048 9.604 0.265 6.414 2.272C168.273 201.298 161.923 198.985 165.113 196.979zM173.941 198.776c1.244 1.083 1.014 2.194-1.209 3.593-0.58 0.365-1.209 0.635-1.867 0.821l0 0c-1.643 0.464-3.463 0.407-5.137 0h-0.002c-0.867-0.211-1.693-0.515-2.438-0.887-2.381-1.194-2.14-2.698-0.65-3.826 0.148 0.935 0.857 1.826 2.049 2.424 2.25 1.128 5.648 1.031 7.711-0.267C173.242 200.104 173.746 199.453 173.941 198.776zM176.566 189.902c3.256-2.048 9.604 0.266 6.414 2.271C179.727 194.222 173.376 191.91 176.566 189.902zM185.395 191.699c1.244 1.083 1.015 2.195-1.207 3.594-2.778 1.748-6.687 1.318-9.442-0.065-2.382-1.194-2.142-2.698-0.652-3.826 0.148 0.937 0.859 1.827 2.049 2.425 2.25 1.127 5.648 1.031 7.711-0.268C184.695 193.027 185.199 192.376 185.395 191.699zM188.02 182.826c3.256-2.049 9.604 0.264 6.414 2.271C191.18 187.146 184.83 184.832 188.02 182.826zM196.848 184.623c1.243 1.082 1.014 2.195-1.207 3.592-2.777 1.75-6.687 1.32-9.442-0.063-2.382-1.194-2.142-2.696-0.652-3.825 0.147 0.936 0.858 1.826 2.049 2.424 2.25 1.129 5.648 1.029 7.711-0.268C196.148 185.951 196.652 185.298 196.848 184.623zM199.475 175.75c3.254-2.047 9.603 0.265 6.412 2.271C202.632 180.069 196.285 177.755 199.475 175.75zM207.094 181.14c-2.777 1.748-6.687 1.318-9.443-0.066-2.381-1.195-2.142-2.697-0.651-3.824 0.147 0.935 0.858 1.824 2.049 2.424 2.25 1.128 5.647 1.029 7.711-0.269 0.844-0.53 1.348-1.183 1.543-1.858C209.544 178.63 209.314 179.742 207.094 181.14z" fill="#dcdcdc" data-fill-palette-color="accent"></path><path d="M193.736 168.848c-0.348-0.433-0.836-0.821-1.453-1.13-2.25-1.129-5.646-1.031-7.711 0.268-0.201 0.127-0.383 0.26-0.547 0.399-0.385 0.166-0.758 0.36-1.115 0.587-3.539 2.227-3.271 4.627-1.279 6.318-0.237-0.182-0.504-0.348-0.801-0.496-2.25-1.129-5.647-1.03-7.711 0.267-0.201 0.128-0.383 0.261-0.547 0.399-0.385 0.168-0.758 0.361-1.115 0.588-3.539 2.227-3.271 4.628-1.281 6.32-0.235-0.183-0.502-0.35-0.799-0.498-2.25-1.129-5.647-1.031-7.711 0.268-0.201 0.127-0.383 0.261-0.547 0.4-0.387 0.168-0.758 0.362-1.115 0.586-3.539 2.228-3.271 4.627-1.28 6.32-0.236-0.182-0.502-0.349-0.8-0.498-2.25-1.129-5.647-1.029-7.711 0.268-0.2 0.128-0.383 0.262-0.547 0.398-0.385 0.17-0.758 0.362-1.115 0.588-3.538 2.229-3.272 4.629-1.28 6.321-0.235-0.183-0.502-0.349-0.799-0.498-2.25-1.13-5.648-1.032-7.711 0.267-0.201 0.127-0.384 0.262-0.547 0.398-0.386 0.168-0.759 0.363-1.116 0.588-3.265 2.053-3.291 4.26-1.712 5.915l0 0c0.133 0.14 0.277 0.274 0.432 0.405-0.186-0.145-0.392-0.276-0.616-0.405h-0.009c-0.058-0.032-0.115-0.062-0.175-0.092-2.144-1.076-5.332-1.037-7.413 0.093-0.102 0.057-0.202 0.113-0.298 0.174-0.201 0.129-0.384 0.262-0.547 0.399-0.386 0.168-0.759 0.362-1.115 0.587-3.541 2.227-3.272 4.628-1.281 6.32-0.236-0.182-0.502-0.348-0.798-0.496-2.25-1.129-5.649-1.031-7.711 0.267-0.202 0.127-0.384 0.261-0.547 0.399-0.386 0.168-0.759 0.361-1.116 0.586-2.684 1.689-3.179 3.479-2.393 4.982 0.25 0.479 0.631 0.931 1.112 1.338-0.236-0.181-0.502-0.349-0.798-0.498-2.25-1.127-5.649-1.029-7.712 0.27-0.201 0.125-0.383 0.262-0.547 0.4-0.385 0.166-0.759 0.359-1.115 0.584-3.541 2.229-3.272 4.629-1.281 6.322-0.236-0.182-0.502-0.35-0.799-0.498-2.25-1.129-5.649-1.031-7.711 0.267-0.202 0.127-0.383 0.261-0.547 0.399-0.385 0.166-0.758 0.361-1.115 0.586-8.295 5.22 4.316 11.393 11.023 7.174 4.291-2.701 2.988-5.655-0.198-7.295-0.133-0.166-0.288-0.328-0.461-0.479 2.75 2.163 8.357 3.059 12.113 0.694 4.29-2.699 2.987-5.653-0.199-7.294-0.133-0.166-0.288-0.326-0.461-0.479 2.75 2.163 8.357 3.059 12.113 0.694 1.147-0.722 1.896-1.461 2.313-2.188v-0.002c1.146-1.994-0.178-3.9-2.512-5.103-0.133-0.165-0.288-0.325-0.462-0.479 2.75 2.164 8.358 3.062 12.113 0.695 4.29-2.698 2.989-5.654-0.198-7.294-0.134-0.167-0.289-0.326-0.462-0.478 2.75 2.162 8.358 3.06 12.114 0.694 0.662-0.416 1.189-0.839 1.599-1.257v-0.004c2.245-2.319 0.897-4.646-1.798-6.032-0.133-0.167-0.286-0.325-0.461-0.478 2.75 2.162 8.357 3.058 12.113 0.693 4.291-2.699 2.988-5.652-0.199-7.294-0.133-0.167-0.287-0.325-0.463-0.478 2.752 2.162 8.359 3.058 12.115 0.695 4.291-2.701 2.988-5.655-0.199-7.295-0.133-0.166-0.287-0.326-0.463-0.479 2.752 2.163 8.359 3.059 12.115 0.695 4.291-2.699 2.988-5.654-0.197-7.295-0.135-0.166-0.289-0.324-0.463-0.478 2.75 2.162 8.357 3.06 12.113 0.695C198.225 173.443 196.921 170.488 193.736 168.848zM93.817 225.98c3.254-2.048 9.603 0.266 6.414 2.271C96.976 230.3 90.627 227.987 93.817 225.98zM102.644 227.779c1.244 1.081 1.014 2.195-1.207 3.594-2.777 1.748-6.685 1.316-9.443-0.067-2.381-1.194-2.14-2.696-0.652-3.826 0.15 0.937 0.859 1.826 2.049 2.424 2.25 1.13 5.649 1.032 7.712-0.266C101.945 229.105 102.449 228.455 102.644 227.779zM105.271 218.902c3.254-2.046 9.603 0.268 6.414 2.273C108.43 223.224 102.081 220.912 105.271 218.902zM114.097 220.701c1.244 1.084 1.014 2.196-1.207 3.594-2.778 1.748-6.686 1.317-9.444-0.065-2.381-1.194-2.14-2.697-0.652-3.826 0.149 0.937 0.859 1.827 2.049 2.425 2.25 1.129 5.649 1.03 7.711-0.267C113.398 222.03 113.902 221.378 114.097 220.701zM116.724 211.828c3.254-2.049 9.603 0.266 6.414 2.271C119.883 216.146 113.534 213.835 116.724 211.828zM125.55 213.625c0.994 0.864 1.047 1.75-0.104 2.785h-0.002c-0.289 0.26-0.655 0.527-1.1 0.81-2.778 1.747-6.686 1.317-9.443-0.067-0.47-0.234-0.838-0.48-1.114-0.738h-0.002c-1.121-1.033-0.73-2.182 0.464-3.086 0.149 0.935 0.858 1.824 2.049 2.422 0.642 0.323 1.376 0.545 2.147 0.664h1.603l-1.603 0.006c0.95 0.15 1.955 0.147 2.905-0.004h0.032c0.972-0.153 1.886-0.465 2.627-0.932C124.852 214.953 125.356 214.302 125.55 213.625zM139.631 197.673c3.253-2.047 9.604 0.265 6.414 2.273C142.789 201.994 136.441 199.681 139.631 197.673zM128.177 204.751c3.254-2.047 9.604 0.266 6.414 2.271C131.336 209.071 124.987 206.759 128.177 204.751zM137.003 206.548c1.245 1.082 1.014 2.195-1.207 3.593-2.779 1.749-6.686 1.317-9.444-0.065-2.381-1.195-2.14-2.697-0.652-3.826 0.149 0.937 0.859 1.828 2.049 2.424 2.25 1.131 5.649 1.031 7.711-0.266C136.305 207.876 136.809 207.225 137.003 206.548zM148.457 199.472c1.244 1.082 1.015 2.193-1.207 3.593-0.067 0.044-0.137 0.085-0.207 0.126l0 0c-2.631 1.523-6.186 1.196-8.841 0.002v-0.005c-0.135-0.062-0.266-0.124-0.395-0.188-2.381-1.194-2.139-2.697-0.651-3.826 0.149 0.937 0.859 1.828 2.048 2.425 2.25 1.13 5.648 1.032 7.71-0.267C147.757 200.8 148.264 200.147 148.457 199.472zM151.083 190.598c3.254-2.047 9.604 0.266 6.412 2.272C154.242 194.917 147.895 192.605 151.083 190.598zM159.91 192.396c1.244 1.082 1.014 2.195-1.207 3.594-2.777 1.747-6.686 1.317-9.442-0.066-2.382-1.194-2.142-2.696-0.652-3.826 0.149 0.936 0.858 1.826 2.05 2.424 2.25 1.129 5.647 1.032 7.711-0.266C159.21 193.723 159.716 193.071 159.91 192.396zM162.537 183.521c3.254-2.048 9.604 0.266 6.412 2.273C165.697 187.841 159.348 185.528 162.537 183.521zM171.363 185.318c1.244 1.083 1.016 2.196-1.207 3.594-2.777 1.748-6.686 1.317-9.443-0.065-2.381-1.194-2.139-2.697-0.651-3.825 0.149 0.936 0.858 1.827 2.049 2.424 2.25 1.128 5.65 1.029 7.711-0.268C170.664 186.646 171.167 185.994 171.363 185.318zM173.99 176.445c3.254-2.049 9.604 0.264 6.412 2.271C177.15 180.765 170.8 178.453 173.99 176.445zM182.816 178.242c1.244 1.084 1.016 2.194-1.207 3.594-2.777 1.746-6.686 1.317-9.443-0.066-2.381-1.193-2.139-2.696-0.651-3.825 0.149 0.937 0.858 1.826 2.049 2.425 2.25 1.127 5.647 1.029 7.713-0.269C182.119 179.569 182.621 178.919 182.816 178.242zM185.443 169.369c3.254-2.047 9.604 0.266 6.414 2.271C188.604 173.688 182.253 171.375 185.443 169.369zM193.062 174.757c-2.777 1.75-6.686 1.318-9.443-0.064-2.381-1.193-2.139-2.697-0.652-3.824 0.15 0.936 0.859 1.825 2.052 2.424 2.248 1.129 5.647 1.028 7.711-0.269 0.842-0.53 1.347-1.183 1.541-1.858C195.514 172.248 195.285 173.361 193.062 174.757z" fill="#dcdcdc" data-fill-palette-color="accent"></path><path d="M258.167 194.08l-101.926-51.152c-1.52-0.789-2.762-1.183-3.832-1.306l3.9-2.505c2.631-1.687 4.775-5.765 4.775-9.096V6.634c0-1.958-0.724-3.164-1.826-3.51-3.615-1.458-6.951-3.312-10.961-1.305l-1.9 1.072L34.509 74.628c-2.921 1.874-5.21 6.266-5.21 9.893v118.68 4.721c0.184 4.886 2.621 5.025 6.249 6.548l1.137 0.448c-0.086 0.439-0.181 0.941-0.275 1.496h-0.001c-0.199 1.146-0.402 2.498-0.544 3.881-0.226 2.188 1.297 3.982 1.084 6.205l-0.118 1.078c-0.077 0.963 0.145 1.812 1.066 2.258l101.939 51.135c3.064 1.535 7.707 1.4 10.508-0.363l106.975-67.328c1.798-1.131 1.964-5.546 2.136-7.419 0.516-0.532 0.453-1.614 0.453-1.614l0.062-1.061 0.356-6.048 0.029-0.482C260.296 195.71 259.568 194.781 258.167 194.08zM159.164 6.634v123.387c0 2.725-1.852 6.17-3.893 7.479L52.908 203.198l-13.276 8.521c-1.097 0.704-1.675 0.728-1.675-1.273v-7.245V87.059c0-2.724 1.851-6.168 3.891-7.477l115.64-74.221C158.585 4.658 159.164 4.634 159.164 6.634zM36.035 87.059v116.142 7.245c0 1.203 0.271 2.121 0.737 2.729l-1.419-0.539c-2.492-0.947-4.283-1.154-4.418-4.745v-4.69V84.521c0-3.112 2.04-6.967 4.458-8.518l113.94-73.132c2.029-1.166 4.644-0.27 7.115 0.872L40.81 77.963C38.179 79.651 36.035 83.729 36.035 87.059zM258.119 203.185l-0.047 0.861-0.105 1.086c-0.03 0.162-0.067 0.326-0.104 0.39-0.213 0.349-0.25 0.313-0.336 0.767-0.121 1.524-0.396 4.515-1.231 5.363L149.32 278.979c-2.195 1.381-6.119 1.528-8.621 0.272L38.752 228.145c-0.009-0.024-0.029-0.128-0.005-0.415l0.114-1.044c0.118-1.226-0.173-2.312-0.485-3.3l-0.113-0.354-0.375-1.278c-0.101-0.437-0.153-0.854-0.111-1.262 0.152-1.465 0.373-2.891 0.582-4.068l0 0c0.023-0.133 0.047-0.262 0.07-0.387 0.205 0.137 0.425 0.264 0.653 0.381h0.003c0.019 0.012 0.037 0.021 0.056 0.029l101.933 51.155c2.746 1.38 6.979 1.237 9.435-0.31l80.871-50.889 0 0h0.002l26.933-16.947L258.119 203.185zM257.652 197.604l-108.166 68.062c-1.85 1.166-5.365 1.316-7.551 0.221l-32.723-16.424h-0.001l-65.84-33.045-3.368-1.688c-0.417-0.21-0.696-0.389-0.97-0.631l0.581-0.235 0.37-0.149c0.223-0.104 0.454-0.227 0.687-0.375l15.796-10.139h0.001l92.609-59.439c1.529-0.621 3.215-0.719 6.289 0.88l101.938 51.158C258.852 196.574 258.621 196.994 257.652 197.604z" fill="#dcdcdc" data-fill-palette-color="accent"></path><path d="M179.705 162.468c-0.348-0.434-0.834-0.821-1.451-1.131-2.25-1.129-5.647-1.03-7.711 0.267-0.201 0.126-0.383 0.261-0.547 0.399-0.387 0.168-0.76 0.36-1.115 0.586-3.541 2.229-3.272 4.63-1.28 6.322-0.236-0.183-0.502-0.351-0.8-0.498-2.25-1.131-5.647-1.031-7.711 0.268-0.202 0.128-0.385 0.26-0.549 0.4-0.385 0.166-0.758 0.36-1.112 0.586-3.541 2.228-3.273 4.627-1.281 6.321-0.235-0.183-0.502-0.35-0.799-0.499-2.25-1.13-5.647-1.031-7.711 0.268-0.203 0.127-0.386 0.26-0.548 0.398-0.387 0.168-0.76 0.362-1.114 0.588-3.541 2.229-3.272 4.629-1.281 6.321-0.235-0.183-0.504-0.351-0.799-0.498-2.25-1.13-5.65-1.032-7.712 0.265-0.202 0.129-0.384 0.262-0.547 0.401-0.386 0.167-0.759 0.361-1.115 0.585-3.54 2.229-3.273 4.631-1.282 6.322-0.235-0.182-0.502-0.348-0.798-0.497-2.25-1.129-5.649-1.031-7.711 0.267-0.201 0.127-0.384 0.26-0.546 0.399-0.387 0.168-0.759 0.362-1.116 0.586-3.54 2.228-3.272 4.629-1.281 6.322-0.235-0.183-0.502-0.351-0.799-0.499-2.25-1.127-5.648-1.029-7.71 0.268-0.202 0.127-0.385 0.262-0.547 0.398-0.386 0.17-0.759 0.363-1.116 0.588-2.83 1.781-3.227 3.672-2.254 5.222v0.002c0.244 0.39 0.574 0.759 0.973 1.099-0.235-0.184-0.502-0.351-0.798-0.498-0.537-0.27-1.141-0.469-1.775-0.603h-0.022c-1.186-0.241-2.48-0.237-3.665 0.001v0.004c-0.83 0.17-1.604 0.459-2.249 0.864-0.201 0.128-0.384 0.263-0.546 0.399-0.387 0.168-0.76 0.361-1.116 0.587-3.54 2.227-3.273 4.628-1.281 6.319-0.236-0.182-0.502-0.348-0.798-0.496-2.25-1.131-5.649-1.033-7.711 0.265-0.202 0.128-0.384 0.262-0.547 0.401-0.386 0.168-0.759 0.362-1.116 0.588-2.283 1.436-2.982 2.942-2.657 4.287 0.18 0.74 0.669 1.433 1.377 2.032-0.236-0.182-0.503-0.35-0.799-0.497-2.25-1.129-5.649-1.031-7.711 0.266-0.202 0.127-0.383 0.262-0.546 0.4-0.387 0.168-0.759 0.361-1.116 0.586-8.295 5.221 4.317 11.394 11.023 7.172 4.291-2.701 2.988-5.654-0.198-7.293-0.133-0.166-0.289-0.326-0.462-0.479 2.751 2.162 8.358 3.059 12.114 0.695 1.516-0.954 2.333-1.94 2.616-2.885v-0.002c0.52-1.736-0.754-3.348-2.815-4.408-0.133-0.166-0.288-0.325-0.462-0.479 2.751 2.164 8.358 3.059 12.114 0.695 4.29-2.7 2.988-5.653-0.198-7.294-0.134-0.167-0.289-0.326-0.463-0.478 2.751 2.162 8.358 3.059 12.114 0.693 1.025-0.645 1.731-1.305 2.168-1.95v-0.007c1.393-2.079 0.059-4.088-2.366-5.336-0.134-0.167-0.288-0.326-0.463-0.479 2.751 2.164 8.359 3.058 12.114 0.694 4.291-2.698 2.988-5.653-0.198-7.293-0.134-0.168-0.288-0.327-0.462-0.478 2.75 2.16 8.359 3.058 12.112 0.695 4.291-2.703 2.988-5.658-0.196-7.295-0.136-0.167-0.287-0.326-0.463-0.478 2.75 2.161 8.358 3.057 12.112 0.694 4.291-2.699 2.988-5.654-0.196-7.295-0.134-0.166-0.287-0.326-0.464-0.478 2.752 2.161 8.359 3.057 12.113 0.694 4.293-2.698 2.988-5.654-0.197-7.295-0.133-0.166-0.286-0.326-0.463-0.477 2.752 2.162 8.359 3.057 12.113 0.693C184.195 167.061 182.891 164.106 179.705 162.468zM79.787 219.599c3.255-2.046 9.604 0.268 6.414 2.273C82.946 223.919 76.598 221.606 79.787 219.599zM88.613 221.397c1.244 1.083 1.015 2.196-1.207 3.595-2.778 1.746-6.686 1.315-9.443-0.068-2.381-1.194-2.14-2.697-0.653-3.825 0.149 0.935 0.859 1.827 2.049 2.424 2.25 1.13 5.649 1.031 7.711-0.265C87.915 222.726 88.419 222.074 88.613 221.397zM91.24 212.522c3.254-2.048 9.603 0.267 6.414 2.272C94.399 216.841 88.05 214.531 91.24 212.522zM100.066 214.321c0.768 0.668 0.974 1.347 0.498 2.093v0.006c-0.296 0.467-0.854 0.961-1.705 1.494-2.778 1.748-6.686 1.316-9.443-0.065-0.893-0.447-1.417-0.938-1.645-1.435v-0.004c-0.38-0.83 0.063-1.683 0.992-2.388 0.147 0.92 0.836 1.796 1.99 2.392v0.002c0.02 0.011 0.04 0.021 0.06 0.029 2.096 1.053 5.19 1.038 7.271-0.023H98.1c0.147-0.077 0.289-0.157 0.425-0.242C99.368 215.648 99.872 214.998 100.066 214.321zM102.693 205.447c3.254-2.048 9.603 0.266 6.414 2.271C105.853 209.767 99.504 207.455 102.693 205.447zM111.52 207.244c1.245 1.082 1.015 2.195-1.206 3.592-2.778 1.75-6.686 1.319-9.444-0.063-2.38-1.194-2.139-2.696-0.652-3.826 0.149 0.937 0.859 1.826 2.049 2.425 2.25 1.129 5.648 1.029 7.711-0.267C110.821 208.571 111.325 207.919 111.52 207.244zM114.147 198.369c3.254-2.047 9.603 0.266 6.413 2.272C117.307 202.69 110.957 200.376 114.147 198.369zM122.973 200.167c1.072 0.933 1.05 1.889-0.396 3.025v0.002c-0.233 0.184-0.503 0.371-0.811 0.564-2.778 1.748-6.686 1.318-9.444-0.065-0.323-0.161-0.598-0.329-0.828-0.5v-0.002c-1.464-1.094-1.109-2.349 0.176-3.323 0.149 0.936 0.859 1.827 2.05 2.424 2.249 1.131 5.648 1.03 7.71-0.269C122.274 201.494 122.779 200.843 122.973 200.167zM125.6 191.294c3.254-2.049 9.603 0.264 6.413 2.272C128.759 195.613 122.411 193.3 125.6 191.294zM134.426 193.089c1.245 1.082 1.015 2.195-1.206 3.596-2.778 1.747-6.686 1.316-9.444-0.066-2.38-1.195-2.139-2.697-0.651-3.826 0.149 0.936 0.859 1.826 2.049 2.424 2.25 1.129 5.648 1.031 7.711-0.266C133.728 194.417 134.232 193.767 134.426 193.089zM137.053 184.216c3.253-2.045 9.603 0.266 6.413 2.273C140.213 188.537 133.864 186.224 137.053 184.216zM145.878 186.014c1.246 1.084 1.017 2.196-1.207 3.594-2.776 1.748-6.685 1.317-9.442-0.065-2.381-1.193-2.14-2.696-0.651-3.826 0.149 0.935 0.859 1.826 2.048 2.425 2.251 1.129 5.649 1.028 7.711-0.267C145.182 187.343 145.686 186.691 145.878 186.014zM148.505 177.14c3.254-2.047 9.604 0.266 6.414 2.271C151.666 181.458 145.316 179.148 148.505 177.14zM157.333 178.938c1.244 1.083 1.015 2.194-1.209 3.593-2.776 1.747-6.684 1.317-9.442-0.066-2.379-1.193-2.14-2.695-0.649-3.824 0.147 0.936 0.858 1.826 2.049 2.425 2.25 1.126 5.647 1.029 7.711-0.271C156.634 180.266 157.139 179.614 157.333 178.938zM159.958 170.065c3.256-2.049 9.604 0.265 6.414 2.271C163.119 174.382 156.77 172.071 159.958 170.065zM168.787 171.86c1.244 1.083 1.014 2.196-1.207 3.595-2.776 1.748-6.686 1.317-9.442-0.065-2.382-1.194-2.142-2.697-0.652-3.825 0.147 0.936 0.859 1.826 2.05 2.423 2.25 1.13 5.647 1.029 7.711-0.267C168.087 173.188 168.591 172.537 168.787 171.86zM171.414 162.987c3.254-2.047 9.603 0.265 6.412 2.271C174.572 167.307 168.223 164.994 171.414 162.987zM179.033 168.378c-2.777 1.748-6.686 1.316-9.443-0.065-2.381-1.196-2.141-2.699-0.651-3.826 0.149 0.935 0.858 1.826 2.049 2.425 2.25 1.129 5.648 1.029 7.712-0.27 0.844-0.531 1.348-1.182 1.543-1.857C181.484 165.869 181.253 166.981 179.033 168.378z" fill="#dcdcdc" data-fill-palette-color="accent"></path><g fill="#dcdcdc" data-fill-palette-color="accent"><path d="M165.675 156.087c-0.348-0.435-0.836-0.822-1.452-1.131-2.248-1.129-5.647-1.03-7.711 0.267-0.201 0.127-0.384 0.26-0.548 0.399-0.385 0.166-0.76 0.361-1.114 0.586-3.539 2.228-3.271 4.629-1.281 6.322-0.235-0.182-0.502-0.351-0.799-0.498-2.25-1.13-5.647-1.031-7.711 0.268-0.201 0.126-0.384 0.261-0.547 0.4-0.386 0.166-0.759 0.359-1.115 0.586-3.539 2.228-3.271 4.629-1.281 6.32-0.236-0.182-0.502-0.348-0.799-0.497-2.25-1.13-5.648-1.032-7.711 0.267-0.201 0.127-0.383 0.261-0.547 0.399-0.385 0.167-0.758 0.362-1.115 0.586-3.541 2.228-3.272 4.628-1.281 6.321-0.235-0.182-0.502-0.35-0.799-0.497-2.25-1.13-5.648-1.032-7.711 0.267-0.202 0.127-0.383 0.26-0.547 0.398-0.385 0.167-0.759 0.361-1.116 0.587-3.54 2.229-3.272 4.629-1.281 6.321-0.235-0.182-0.502-0.35-0.799-0.497-2.25-1.13-5.648-1.031-7.71 0.266-0.202 0.127-0.384 0.261-0.547 0.401-0.385 0.167-0.758 0.361-1.115 0.586-3.541 2.229-3.272 4.628-1.281 6.32-0.235-0.183-0.502-0.349-0.798-0.498-2.25-1.129-5.648-1.03-7.711 0.268-0.202 0.127-0.384 0.26-0.547 0.398-0.385 0.168-0.758 0.363-1.115 0.588-3.541 2.229-3.273 4.629-1.282 6.322-0.235-0.184-0.502-0.352-0.798-0.5-2.25-1.129-5.649-1.029-7.711 0.268-0.202 0.128-0.383 0.262-0.547 0.4-0.386 0.168-0.759 0.36-1.115 0.586-2.42 1.521-3.06 3.127-2.588 4.527v0.002c0.219 0.649 0.677 1.256 1.307 1.791-0.236-0.182-0.503-0.348-0.799-0.496-2.25-1.131-5.648-1.031-7.711 0.266-0.201 0.128-0.383 0.262-0.547 0.4-0.386 0.168-0.759 0.362-1.115 0.586-3.54 2.229-3.273 4.629-1.281 6.322-0.236-0.183-0.502-0.35-0.799-0.499-2.25-1.13-5.649-1.032-7.711 0.267-0.202 0.127-0.384 0.263-0.547 0.398-0.386 0.168-0.759 0.363-1.116 0.588-1.895 1.191-2.699 2.437-2.731 3.594v0.002l0 0c-0.104 3.904 8.582 6.83 13.754 3.576 1.884-1.186 2.689-2.418 2.731-3.574l0 0v-0.002l0 0v-0.002c0.049-1.467-1.145-2.799-2.929-3.715-0.133-0.166-0.288-0.326-0.462-0.479 2.751 2.163 8.359 3.059 12.114 0.695 4.291-2.699 2.987-5.653-0.198-7.295-0.133-0.168-0.288-0.326-0.462-0.478 2.75 2.163 8.358 3.058 12.114 0.695 1.387-0.873 2.189-1.771 2.533-2.646l0 0c0.719-1.827-0.575-3.538-2.731-4.649-0.133-0.166-0.288-0.324-0.462-0.477 2.75 2.161 8.358 3.057 12.114 0.694 4.291-2.699 2.988-5.654-0.198-7.293-0.134-0.167-0.288-0.328-0.462-0.479 2.75 2.161 8.358 3.059 12.113 0.694 4.291-2.7 2.988-5.655-0.198-7.294-0.134-0.167-0.288-0.326-0.462-0.479 2.75 2.162 8.358 3.059 12.113 0.695 4.291-2.699 2.989-5.654-0.198-7.294-0.133-0.165-0.287-0.325-0.462-0.478 2.75 2.162 8.358 3.058 12.114 0.695 4.291-2.699 2.987-5.654-0.199-7.296-0.133-0.166-0.287-0.325-0.461-0.476 2.75 2.16 8.356 3.057 12.112 0.693 4.291-2.701 2.988-5.656-0.198-7.293-0.134-0.168-0.287-0.326-0.461-0.479 2.75 2.161 8.356 3.059 12.112 0.693C170.164 160.681 168.861 157.727 165.675 156.087zM65.756 213.218c3.254-2.047 9.604 0.266 6.414 2.273C68.916 217.539 62.567 215.227 65.756 213.218zM73.652 216.417h0.002c0.481-0.429 0.788-0.908 0.929-1.4 0.523 0.455 0.786 0.915 0.75 1.398v0.002c-0.05 0.668-0.668 1.383-1.957 2.191-2.777 1.749-6.685 1.318-9.444-0.066-1.3-0.652-1.818-1.397-1.778-2.125 0.035-0.602 0.452-1.188 1.126-1.699 0.097 0.605 0.43 1.193 0.976 1.697h0.003c0.295 0.271 0.653 0.517 1.07 0.727 2.25 1.128 5.649 1.031 7.711-0.268C73.269 216.731 73.472 216.58 73.652 216.417zM77.209 206.143c3.255-2.048 9.604 0.265 6.414 2.271C80.369 210.462 74.02 208.149 77.209 206.143zM86.036 207.939c1.244 1.082 1.015 2.195-1.207 3.594-2.777 1.747-6.685 1.317-9.443-0.066-2.38-1.193-2.14-2.695-0.652-3.824 0.149 0.936 0.859 1.824 2.049 2.422 2.25 1.13 5.649 1.033 7.711-0.266C85.338 209.268 85.842 208.617 86.036 207.939zM88.663 199.065c3.254-2.048 9.603 0.265 6.414 2.271C91.823 203.385 85.474 201.072 88.663 199.065zM97.49 200.862c0.845 0.735 1.01 1.485 0.333 2.331h-0.001c-0.32 0.396-0.827 0.814-1.539 1.264-2.777 1.748-6.685 1.318-9.443-0.065-0.744-0.374-1.231-0.777-1.505-1.194H85.33c-0.597-0.908-0.164-1.855 0.857-2.632 0.149 0.935 0.858 1.827 2.049 2.425 0.148 0.073 0.301 0.145 0.459 0.207 1.893 0.766 4.405 0.762 6.3 0.001h0.009c0.336-0.136 0.652-0.293 0.943-0.477C96.791 202.189 97.295 201.539 97.49 200.862zM100.116 191.989c3.254-2.047 9.604 0.265 6.414 2.272C103.276 196.309 96.927 193.996 100.116 191.989zM108.943 193.787c1.245 1.084 1.015 2.194-1.207 3.594-2.777 1.746-6.685 1.317-9.443-0.067-2.381-1.192-2.14-2.694-0.652-3.824 0.149 0.935 0.859 1.826 2.049 2.423 2.25 1.129 5.649 1.031 7.711-0.268C108.244 195.114 108.748 194.462 108.943 193.787zM111.569 184.912c3.254-2.045 9.604 0.267 6.414 2.273C114.729 189.232 108.38 186.919 111.569 184.912zM120.396 186.708c1.245 1.084 1.015 2.196-1.207 3.594-2.778 1.75-6.686 1.32-9.444-0.064-2.38-1.195-2.139-2.697-0.651-3.824 0.149 0.935 0.858 1.825 2.049 2.422 2.25 1.129 5.648 1.031 7.71-0.266C119.698 188.037 120.202 187.386 120.396 186.708zM123.023 177.835c3.254-2.047 9.604 0.267 6.414 2.271C126.182 182.156 119.833 179.843 123.023 177.835zM131.85 179.634c1.245 1.084 1.015 2.195-1.208 3.594-2.777 1.747-6.685 1.316-9.443-0.066-2.381-1.195-2.139-2.697-0.651-3.826 0.149 0.936 0.859 1.828 2.049 2.426 2.25 1.127 5.648 1.029 7.711-0.27C131.15 180.96 131.655 180.31 131.85 179.634zM134.476 170.76c3.254-2.048 9.604 0.265 6.415 2.271C137.636 175.078 131.287 172.767 134.476 170.76zM143.303 172.557c1.243 1.083 1.016 2.196-1.207 3.595-2.777 1.746-6.685 1.316-9.444-0.066-2.381-1.193-2.14-2.698-0.651-3.825 0.149 0.936 0.859 1.827 2.049 2.422 2.25 1.13 5.65 1.032 7.71-0.267C142.604 173.882 143.107 173.233 143.303 172.557zM145.93 163.684c3.254-2.049 9.604 0.264 6.414 2.271C149.089 168.001 142.74 165.689 145.93 163.684zM154.755 165.48c1.244 1.082 1.017 2.195-1.207 3.593-2.776 1.748-6.686 1.318-9.442-0.063-2.381-1.196-2.141-2.698-0.651-3.827 0.149 0.937 0.858 1.825 2.051 2.424 2.248 1.13 5.647 1.03 7.709-0.269C154.059 166.807 154.562 166.156 154.755 165.48zM157.382 156.607c3.255-2.049 9.604 0.264 6.414 2.271C160.542 160.925 154.193 158.613 157.382 156.607zM165.001 161.998c-2.776 1.746-6.686 1.317-9.442-0.067-2.381-1.194-2.14-2.696-0.651-3.823 0.149 0.934 0.858 1.824 2.051 2.422 2.248 1.131 5.647 1.032 7.709-0.267 0.846-0.531 1.35-1.183 1.543-1.857C167.453 159.487 167.223 160.6 165.001 161.998z" fill="#dcdcdc" data-fill-palette-color="accent"></path><path d="M154.02 121.094V26.195c0-4.062-2.979-6.184-6.515-3.916L48.436 85.864c-3.005 1.93-5.335 6.409-5.335 10.123v94.897c0 4.062 2.979 6.185 6.513 3.914l99.07-63.584C151.689 129.287 154.02 124.807 154.02 121.094zM48.436 192.966c-1.73 1.109-3.045 0.639-3.154-1.913 1.057 0.524 2.468 0.36 3.854-0.528l96.596-61.996c2.838-1.823 5.084-6.122 5.084-9.663V27.783c0-1.835-0.637-3.257-1.723-3.906 1.596-0.823 2.746-0.151 2.746 2.318v94.898c0 3.027-1.998 6.788-4.334 8.288L48.436 192.966z" fill="#dcdcdc" data-fill-palette-color="accent"></path></g></svg></g></svg></g></svg></g><defs></defs></svg><rect width="395.52" height="134.68201745888106" fill="none" stroke="none" visibility="hidden"></rect></g></svg></g></svg>